<svg width="18" height="17" viewBox="0 0 18 17" fill="none" xmlns="http://www.w3.org/2000/svg">
<g clip-path="url(#clip0_42_56)">
<path d="M15.75 7.08333C15.75 12.0417 9 16.2917 9 16.2917C9 16.2917 2.25 12.0417 2.25 7.08333C2.25 5.39257 2.96116 3.77107 4.22703 2.57552C5.4929 1.37998 7.20979 0.708328 9 0.708328C10.7902 0.708328 12.5071 1.37998 13.773 2.57552C15.0388 3.77107 15.75 5.39257 15.75 7.08333Z" stroke="#401F18" stroke-width="2" stroke-linecap="round" stroke-linejoin="round"/>
<path d="M9 9.20833C10.2426 9.20833 11.25 8.25693 11.25 7.08333C11.25 5.90972 10.2426 4.95833 9 4.95833C7.75736 4.95833 6.75 5.90972 6.75 7.08333C6.75 8.25693 7.75736 9.20833 9 9.20833Z" stroke="#401F18" stroke-width="2" stroke-linecap="round" stroke-linejoin="round"/>
</g>
<defs>
<clipPath id="clip0_42_56">
<rect width="18" height="17" fill="white"/>
</clipPath>
</defs>
</svg>
